{"title":"Midsomer Murders S18E03 - Breaking the Chain x264 RB58.mp4","uid":13338406,"size":1019228242,"categoryP":"video","categoryS":"tv_shows","magnet":"?xt=urn:btih:44962c57dd530243c9a5297a21610d3fa5a9cc69&amp;dn=Midsomer+Murders+S18E03+-+Breaking+the+Chain+x264+RB58.mp4&amp;tr=udp%3A%2F%2Ftracker.leechers-paradise.org%3A6969&amp;tr=udp%3A%2F%2Fzer0day.ch%3A1337&amp;tr=udp%3A%2F%2Fopen.demonii.com%3A1337&amp;tr=udp%3A%2F%2Ftracker.coppersurfer.tk%3A6969&amp;tr=udp%3A%2F%2Fexodus.desync.com%3A6969","seeders":0,"leechers":1,"uploader":"RedBaron58","files":1,"time":1454002931,"description":"Midsomer Murders S18E03 - Breaking the Chain x264 mp4\r\n \nhttp://www.imdb.com/title/tt0118401/\r\n\r\n\r\nPlease be patient My intial upload speed is limited.\r\nThank you for your kind comments and feedback on my other torrents, your feedback is welcome.\r\n\r\n\r\nAbout the Episode:\r\nAn international cycling competition comes to the Midsomer village of Burwood Mantle,\r\nbut when the race leader is murdered, DCI Barnaby and DS Nelson must investigate. \r\nDuring the race's finale, the victim overtook his team-mate to win, leaving the team owner annoyed \r\nthat he disobeyed his orders, and the rival manager disappointed that his team lost. \r\nHowever, as the pair look into the case, they find themselves drawn into a competitive world of \r\nblackmail, bribery and bloodshed, where winning comes at any cost.\r\n\r\nI hope you enjoy.\r\n\r\n\r\nTechnical:\r\n \r\nGeneral\r\nComplete name                            : G:Midsomer Murders S18E03 - Breaking the Chain x264 RB58.mp4\r\nFormat                                   : MPEG-4\r\nFormat profile                           : Base Media\r\nCodec ID                                 : isom\r\nFile size                                : 972 MiB\r\nDuration                                 : 1h 29mn\r\nOverall bit rate                         : 1 526 Kbps\r\nWriting application                      : Lavf54.63.104\r\n\r\nVideo\r\nID                                       : 1\r\nFormat                                   : AVC\r\nFormat/Info                              : Advanced Video Codec\r\nFormat profile                           :   \r\nFormat settings, CABAC                   : Yes\r\nFormat settings, ReFrames                : 4 frames\r\nCodec ID                                 : avc1\r\nCodec ID/Info                            : Advanced Video Coding\r\nDuration                                 : 1h 29mn\r\nBit rate                                 : 1 400 Kbps\r\nWidth                                    : 832 pixels\r\nHeight                                   : 468 pixels\r\nDisplay aspect ratio                     : 16:9\r\nFrame rate mode                          : Constant\r\nFrame rate                               : 25.000 fps\r\nColor space                              : YUV\r\nChroma subsampling                       : 4:2:0\r\nBit depth                                : 8 bits\r\nScan type                                : Progressive\r\nBits/(Pixel*Frame)                       : 0.144\r\nStream size                              : 892 MiB (92%)\r\nWriting library                          : x264 core 123 r2189 35cf912\r\nEncoding settings                        : cabac=1 / ref=3 / deblock=1:0:0\r\n\r\nAudio\r\nID                                       : 2\r\nFormat                                   : AAC\r\nFormat/Info                              : Advanced Audio Codec\r\nFormat profile                           : LC\r\nCodec ID                                 : 40\r\nDuration                                 : 1h 29mn\r\nBit rate mode                            : Constant\r\nBit rate                                 : 118 Kbps\r\nChannel(s)                               : 2 channels\r\nChannel positions                        : Front: L R\r\nSampling rate                            : 48.0 KHz\r\nCompression mode                         : Lossy\r\nStream size                              : 74.9 MiB (8%)","torrent":{"xt":"urn:btih:44962c57dd530243c9a5297a21610d3fa5a9cc69","amp;dn":"Midsomer+Murders+S18E03+-+Breaking+the+Chain+x264+RB58.mp4","amp;tr":["udp%3A%2F%2Ftracker.leechers-paradise.org%3A6969","udp%3A%2F%2Fzer0day.ch%3A1337","udp%3A%2F%2Fopen.demonii.com%3A1337","udp%3A%2F%2Ftracker.coppersurfer.tk%3A6969","udp%3A%2F%2Fexodus.desync.com%3A6969"],"infoHash":"44962c57dd530243c9a5297a21610d3fa5a9cc69","infoHashBuffer":{"type":"Buffer","data":[68,150,44,87,221,83,2,67,201,165,41,122,33,97,13,63,165,169,204,105]},"announce":[],"urlList":[]}}